# xmcd
#
# Track frame offsets:
#	150
#	14260
#	26232
#	36935
#	47390
#	59860
#	71060
#	81782
#	94245
#	106855
#	119700
#	130667
#	141077
#	150625
#	161530
#	173075
#	183285
#	192837
#	206252
#	220012
#	232635
#	243485
#	257545
#	268520
#	280020
#
# Disc length: 3893
#
# Revision: 1
# Processed by: cddbd v1.5.1PL0 Copyright (c) Steve Scherf et al.
# Submitted via: CDex 1.40Release
# Normalized: r0:DSETVAR1,TDELIM( - )
#
DISCID=570f3319
DTITLE=Various Artist - The Country Music Jamboree Vol.1
DYEAR=1900
DGENRE=Country
TTITLE0=Hank Thompson - San Antonio Rose
TTITLE1=Hank Thompson - Detour
TTITLE2=Faron Young - If You ain`t Lovin´
TTITLE3=Faron Young - Until i met you
TTITLE4=Skeets McDonald - Don`t let the Stars get in your Eyes
TTITLE5=Skeets McDonald - I love you mama mia
TTITLE6=Merle Travis - Divorce me C.O.D
TTITLE7=Merle Travis - Steel Guitar Rag
TTITLE8=Roy Acuff - Wabash Cannonball
TTITLE9=Roy Acuff - Great Speckled Bird
TTITLE10=Tex Carman - Dixie Cannonball
TTITLE11=Tex Carman - Indian Polka
TTITLE12=Jim and Jesse - Air Mail special
TTITLE13=Jim and Jesse - Are you missing me
TTITLE14=Hylo Brown - Lovesick and sorrow
TTITLE15=Hylo Brown - Your Crazy Heart
TTITLE16=Del Reeves and Chester Smith - Love love love
TTITLE17=Chester Smith and Hazel Houser - Wait a little longer please Jesus
TTITLE18=Ferlin Husky - Walkin´& Hummin´
TTITLE19=Ferlin Husky - Homesick
TTITLE20=Freddy Hart - Loose Talk
TTITLE21=Wynn Stewart - Waltz of the Angel
TTITLE22=Wynn Stewart - Keeper of the Keys
TTITLE23=The Louvin Brothers - Childisch love
TTITLE24=The Louvin Brothers - Cash on the barrel Head
EXTD=ID3G: 2
EXTT0=
EXTT1=
EXTT2=
EXTT3=
EXTT4=
EXTT5=
EXTT6=
EXTT7=
EXTT8=
EXTT9=
EXTT10=
EXTT11=
EXTT12=
EXTT13=
EXTT14=
EXTT15=
EXTT16=
EXTT17=
EXTT18=
EXTT19=
EXTT20=
EXTT21=
EXTT22=
EXTT23=
EXTT24=
PLAYORDER=
